# xmcd CD database file
#
# Track frame offsets:
#	150
#	12715
#	24492
#	36872
#	51027
#	63795
#	75782
#	89605
#	108442
#	117010
#	125192
#
# Disc length: 1850 seconds
#
# Revision: 3
# Processed by: cddbd v1.4PL0 Copyright (c) Steve Scherf et al.
# Submitted via: Feurio! 1.65.1ß - http://www.feurio.com
#
DISCID=8707380b
DTITLE=Johnny Cash - Greatest Hits Vol. 1
DYEAR=1900
DGENRE=country
TTITLE0=Jackson (with June Carter)
TTITLE1=I Walk The Line
TTITLE2=Understand Your Man
TTITLE3=Orange Blossom Special
TTITLE4=The One On The Right Is On The Left
TTITLE5=Ring Of Fire
TTITLE6=It Ain't Me, Babe
TTITLE7=The Ballad Of Ira Hayes
TTITLE8=The Rebel - Johnny Yuma
TTITLE9=Five Feet High And Rising
TTITLE10=Don't Take Your Guns To Town
EXTD=
EXTT0=
EXTT1=
EXTT2=
EXTT3=
EXTT4=
EXTT5=
EXTT6=
EXTT7=
EXTT8=
EXTT9=
EXTT10=
PLAYORDER=
